<svg id="Multi_color" xmlns="http://www.w3.org/2000/svg" width="20" height="18.203" viewBox="0 0 200 182.031">
  <metadata><?xpacket begin="﻿" id="W5M0MpCehiHzreSzNTczkc9d"?>
<x:xmpmeta xmlns:x="adobe:ns:meta/" x:xmptk="Adobe XMP Core 5.6-c138 79.159824, 2016/09/14-01:09:01        ">
   <rdf:RDF xmlns:rdf="http://www.w3.org/1999/02/22-rdf-syntax-ns#">
      <rdf:Description rdf:about=""/>
   </rdf:RDF>
</x:xmpmeta>
                                                                                                    
                                                                                                    
                                                                                                    
                                                                                                    
                                                                                                    
                                                                                                    
                                                                                                    
                                                                                                    
                                                                                                    
                                                                                                    
                                                                                                    
                                                                                                    
                                                                                                    
                                                                                                    
                                                                                                    
                                                                                                    
                                                                                                    
                                                                                                    
                                                                                                    
                                                                                                    
                           
<?xpacket end="w"?></metadata>
<defs>
    <style>
      .cls-1 {
        fill: #fff;
      }

      .cls-1, .cls-2, .cls-3 {
        fill-rule: evenodd;
      }

      .cls-2 {
        fill: #398ecd;
      }

      .cls-3 {
        fill: #f26451;
      }
    </style>
  </defs>
  <path id="white" class="cls-1" d="M46.98,54.463L180.28,9.211C190.971,7.41,200,17.951,200,28.633L172.727,144.224c0,10.682-8.912,20.309-19.72,19.422l-133.3,14.121c-10.808-.887-19.72-8.74-19.72-19.422L27.26,73.885C27.26,63.2,36.289,56.264,46.98,54.463Z" transform="translate(0 -9)"/>
  <path id="blue" class="cls-2" d="M19.79,36.062L180.946,9.2a14.6,14.6,0,0,1,2.8-.193,233.875,233.875,0,0,1-57.508,89.6A242.32,242.32,0,0,1,1.006,163.227,17.908,17.908,0,0,1,0,157.265V55.344C0,44.739,9.06,37.85,19.79,36.062Z" transform="translate(0 -9)"/>
  <path id="red" class="cls-3" d="M190.45,12.173c6.376,2.752,9.55,12.394,9.55,17.276V171.636c0,10.63-8.953,20.209-19.811,19.327L18.874,177.849c-3.576-.291-12.073-2.891-14-6.027,47.915-10.427,92.059-34.177,125.575-66.874A246.894,246.894,0,0,0,190.45,12.173Z" transform="translate(0 -9)"/>
</svg>
