<svg id="Premmerce_logo_light" xmlns="http://www.w3.org/2000/svg" width="20" height="15" viewBox="0 0 20 15">
  <metadata><?xpacket begin="﻿" id="W5M0MpCehiHzreSzNTczkc9d"?>
<x:xmpmeta xmlns:x="adobe:ns:meta/" x:xmptk="Adobe XMP Core 5.6-c138 79.159824, 2016/09/14-01:09:01        ">
   <rdf:RDF xmlns:rdf="http://www.w3.org/1999/02/22-rdf-syntax-ns#">
      <rdf:Description rdf:about=""/>
   </rdf:RDF>
</x:xmpmeta>
                                                                                                    
                                                                                                    
                                                                                                    
                                                                                                    
                                                                                                    
                                                                                                    
                                                                                                    
                                                                                                    
                                                                                                    
                                                                                                    
                                                                                                    
                                                                                                    
                                                                                                    
                                                                                                    
                                                                                                    
                                                                                                    
                                                                                                    
                                                                                                    
                                                                                                    
                                                                                                    
                           
<?xpacket end="w"?></metadata>
<defs>
    <style>
      .cls-1 {
        fill: #979997;
      }

      .cls-1, .cls-2 {
        fill-rule: evenodd;
      }

      .cls-2 {
        fill: #777;
      }
    </style>
  </defs>
  <path id="p_copy_13" data-name="p copy 13" class="cls-1" d="M91.248,980.294H87.676v-1.941h3.572A0.971,0.971,0,1,1,91.248,980.294Zm-2.5,1.059a1.324,1.324,0,1,1-1.339,1.323A1.331,1.331,0,0,1,88.748,981.353ZM83.66,984A1.324,1.324,0,1,1,85,982.676,1.332,1.332,0,0,1,83.66,984Zm0.089-4.679v0.973H82.767a0.976,0.976,0,0,1-.981-0.97h0V971.4s0,0,0,0a0.62,0.62,0,0,0-.625-0.455H79.642a0.971,0.971,0,1,1,0-1.941h2.2a2.134,2.134,0,0,1,1.906,2.382s0,0,0,.006,0,0.006,0,.01v7.923Zm-3.392-4.277a0.666,0.666,0,0,1-.67.662H77.634a0.662,0.662,0,1,1,0-1.324h2.053A0.666,0.666,0,0,1,80.356,975.044Zm-0.446,2.382a0.666,0.666,0,0,1-.669.662H75.67a0.662,0.662,0,1,1,0-1.323h3.571A0.665,0.665,0,0,1,79.91,977.426Z" transform="translate(-75 -969)"/>
  <path class="cls-2" d="M94.8,974.074c-0.638,2.226-1.428,3.133-3.189,3.133H86.695v3.088H84.731v-9.353H93.2C94.965,970.941,95.275,972.408,94.8,974.074Zm-2.658-1.192H87.052c-0.355,0-.357,0-0.357.353v1.677c0,0.352,0,.353.357,0.353H91.6C92.469,975.265,93.25,972.882,92.141,972.882Z" transform="translate(-75 -969)"/>
</svg>
