<?xml version="1.0" encoding="utf-8"?>
<!-- Generator: Adobe Illustrator 21.0.2, SVG Export Plug-In . SVG Version: 6.00 Build 0)  -->
<svg version="1.1" id="Layer_1" xmlns="http://www.w3.org/2000/svg" xmlns:xlink="http://www.w3.org/1999/xlink" x="0px" y="0px"
	 viewBox="0 0 20 14.641" style="enable-background:new 0 0 20 14.641;" xml:space="preserve">
<style type="text/css">
	.st0{fill-rule:evenodd;clip-rule:evenodd;fill:url(#SVGID_1_);}
	.st1{fill-rule:evenodd;clip-rule:evenodd;fill:url(#SVGID_2_);}
	.st2{fill-rule:evenodd;clip-rule:evenodd;fill:url(#SVGID_3_);}
	.st3{fill-rule:evenodd;clip-rule:evenodd;fill:url(#SVGID_4_);}
	.st4{fill-rule:evenodd;clip-rule:evenodd;fill:url(#SVGID_5_);}
	.st5{fill-rule:evenodd;clip-rule:evenodd;fill:url(#SVGID_6_);}
	.st6{fill-rule:evenodd;clip-rule:evenodd;fill:url(#SVGID_7_);}
</style>
<g>
	<g>
		<linearGradient id="SVGID_1_" gradientUnits="userSpaceOnUse" x1="1.0596" y1="5.862" x2="12.9332" y2="17.862">
			<stop  offset="0" style="stop-color:#10E1C5"/>
			<stop  offset="0.4581" style="stop-color:#05A7D1"/>
			<stop  offset="0.9901" style="stop-color:#0C6BBE"/>
		</linearGradient>
		<circle class="st0" cx="8.541" cy="13.423" r="1.218"/>
		<linearGradient id="SVGID_2_" gradientUnits="userSpaceOnUse" x1="3.7719" y1="3.1782" x2="15.6456" y2="15.1782">
			<stop  offset="0" style="stop-color:#10E1C5"/>
			<stop  offset="0.4581" style="stop-color:#05A7D1"/>
			<stop  offset="0.9901" style="stop-color:#0C6BBE"/>
		</linearGradient>
		<circle class="st1" cx="13.909" cy="13.423" r="1.218"/>
		<linearGradient id="SVGID_3_" gradientUnits="userSpaceOnUse" x1="4.4581" y1="2.4992" x2="16.3318" y2="14.4992">
			<stop  offset="0" style="stop-color:#10E1C5"/>
			<stop  offset="0.4581" style="stop-color:#05A7D1"/>
			<stop  offset="0.9901" style="stop-color:#0C6BBE"/>
		</linearGradient>
		<path class="st2" d="M7.818,11.22h0.959v-0.885c0-0.006,0.001-0.011,0.001-0.017V2.372c0-0.052-0.006-0.103-0.015-0.153
			C8.75,0.3,7.501,0,7.023,0H4.76C4.279,0,3.89,0.45,3.89,0.969c0,0.518,0.39,0.999,0.871,0.999h1.566
			c0.127,0,0.37,0.013,0.534,0.207c-0.015,0.064-0.024,0.13-0.024,0.198v7.946c0,0.499,0.435,0.903,0.971,0.903
			C7.811,11.22,7.815,11.22,7.818,11.22z"/>
		<linearGradient id="SVGID_4_" gradientUnits="userSpaceOnUse" x1="5.7182" y1="1.2524" x2="17.5918" y2="13.2524">
			<stop  offset="0" style="stop-color:#10E1C5"/>
			<stop  offset="0.4581" style="stop-color:#05A7D1"/>
			<stop  offset="0.9901" style="stop-color:#0C6BBE"/>
		</linearGradient>
		<path class="st3" d="M16.215,9.27h-2.077h-0.092h-1.36v1.95h1.36h0.102h2.067c0.478,0,0.865-0.436,0.865-0.975
			C17.08,9.706,16.693,9.27,16.215,9.27z"/>
		<linearGradient id="SVGID_5_" gradientUnits="userSpaceOnUse" x1="2.2541" y1="4.68" x2="14.1278" y2="16.68">
			<stop  offset="0" style="stop-color:#10E1C5"/>
			<stop  offset="0.4581" style="stop-color:#05A7D1"/>
			<stop  offset="0.9901" style="stop-color:#0C6BBE"/>
		</linearGradient>
		<path class="st4" d="M4.637,5.37H2.685c-0.404,0-0.732,0.327-0.732,0.732c0,0.405,0.328,0.733,0.732,0.733h1.953
			c0.404,0,0.732-0.328,0.732-0.733C5.369,5.697,5.041,5.37,4.637,5.37z"/>
		<linearGradient id="SVGID_6_" gradientUnits="userSpaceOnUse" x1="0.4173" y1="6.4975" x2="12.2909" y2="18.4975">
			<stop  offset="0" style="stop-color:#10E1C5"/>
			<stop  offset="0.4581" style="stop-color:#05A7D1"/>
			<stop  offset="0.9901" style="stop-color:#0C6BBE"/>
		</linearGradient>
		<path class="st5" d="M4.149,7.81H0.732C0.328,7.81,0,8.138,0,8.542c0,0.405,0.328,0.733,0.732,0.733h3.417
			c0.404,0,0.732-0.328,0.732-0.733C4.881,8.138,4.553,7.81,4.149,7.81z"/>
	</g>
	<linearGradient id="SVGID_7_" gradientUnits="userSpaceOnUse" x1="7.4453" y1="-0.4565" x2="19.319" y2="11.5435">
		<stop  offset="0" style="stop-color:#10E1C5"/>
		<stop  offset="0.4581" style="stop-color:#05A7D1"/>
		<stop  offset="0.9901" style="stop-color:#0C6BBE"/>
	</linearGradient>
	<path class="st6" d="M18.208,1.951h-6.942c-0.014,0-0.027,0-0.041,0v0H9.762v0.891v0.496c-0.025,0.388-0.005,0.844,0,1.354v5.075
		v0.562v0.891h0.969c0.003,0,0.006,0,0.01,0c0.003,0,0.007,0,0.01,0h0.969v-0.891V9.767V8.299h4.896
		c1.759,0,2.547-0.919,3.184-3.175C20.275,3.437,19.965,1.951,18.208,1.951z M16.556,6.351l-4.353-0.005
		c-0.321,0-0.46-0.109-0.484-0.392V4.296c0.024-0.282,0.163-0.391,0.484-0.391l5.005-0.007C18.372,3.898,17.421,6.351,16.556,6.351z
		"/>
</g>
</svg>
