<svg xmlns="http://www.w3.org/2000/svg" viewBox="0 0 20 20">
  <metadata><?xpacket begin="﻿" id="W5M0MpCehiHzreSzNTczkc9d"?>
<x:xmpmeta xmlns:x="adobe:ns:meta/" x:xmptk="Adobe XMP Core 5.6-c138 79.159824, 2016/09/14-01:09:01        ">
   <rdf:RDF xmlns:rdf="http://www.w3.org/1999/02/22-rdf-syntax-ns#">
      <rdf:Description rdf:about=""/>
   </rdf:RDF>
</x:xmpmeta>
<?xpacket end="w"?></metadata>
<defs>
    <style>
      .cls-1 {
        fill: rgba(240,245,250,.6);
        fill-rule: evenodd;
      }
    </style>
  </defs>
  <path class="cls-1" d="M52,53A10,10,0,1,0,62,63,10,10,0,0,0,52,53Zm0,19a9,9,0,1,1,9-9A9.01,9.01,0,0,1,52,72ZM47.815,57H45.7a0.752,0.752,0,0,0,0,1.5h1.2a0.21,0.21,0,0,1,.2.216V66a0.705,0.705,0,1,0,1.407,0V57.75A0.728,0.728,0,0,0,47.815,57Zm0,10.5a0.752,0.752,0,1,0,.7.75A0.728,0.728,0,0,0,47.815,67.5Zm10.876-8.529a1.365,1.365,0,0,0-1.024-.471H50.129a0.938,0.938,0,0,0-.906.966V66a0.705,0.705,0,1,0,1.407,0V64.716a0.21,0.21,0,0,1,.2-0.216h4.019c0.777,0,2.287-.812,3.519-3l0.49-1.044A1.383,1.383,0,0,0,58.691,58.971Zm-1.554,1.8A4.268,4.268,0,0,1,54.866,63a0.206,0.206,0,0,1-.032,0h-4.2V60.216a0.21,0.21,0,0,1,.2-0.216H57.5ZM54.852,67.5a0.752,0.752,0,1,0,.7.75A0.728,0.728,0,0,0,54.852,67.5Zm0-2.25H52.037a0.752,0.752,0,0,0,0,1.5h2.815A0.752,0.752,0,0,0,54.852,65.25Z" transform="translate(-42 -53)"/>
</svg>
