<svg id="Premmerce_logo_sunrise" xmlns="http://www.w3.org/2000/svg" width="20" height="15" viewBox="0 0 20 15">
  <metadata><?xpacket begin="﻿" id="W5M0MpCehiHzreSzNTczkc9d"?>
<x:xmpmeta xmlns:x="adobe:ns:meta/" x:xmptk="Adobe XMP Core 5.6-c138 79.159824, 2016/09/14-01:09:01        ">
   <rdf:RDF xmlns:rdf="http://www.w3.org/1999/02/22-rdf-syntax-ns#">
      <rdf:Description rdf:about=""/>
   </rdf:RDF>
</x:xmpmeta>
                                                                                                    
                                                                                                    
                                                                                                    
                                                                                                    
                                                                                                    
                                                                                                    
                                                                                                    
                                                                                                    
                                                                                                    
                                                                                                    
                                                                                                    
                                                                                                    
                                                                                                    
                                                                                                    
                                                                                                    
                                                                                                    
                                                                                                    
                                                                                                    
                                                                                                    
                                                                                                    
                           
<?xpacket end="w"?></metadata>
<defs>
    <style>
      .cls-1 {
        fill: #ffc3c3;
      }

      .cls-1, .cls-2 {
        fill-rule: evenodd;
      }

      .cls-2 {
        fill: #ffe71a;
      }
    </style>
  </defs>
  <path id="p_copy_13" data-name="p copy 13" class="cls-1" d="M146.248,1434.29h0l-3.572.01v-1.95h3.572A0.97,0.97,0,1,1,146.248,1434.29Zm-2.5,1.06a1.325,1.325,0,1,1-1.339,1.33A1.338,1.338,0,0,1,143.748,1435.35ZM138.66,1438a1.325,1.325,0,1,1,1.339-1.32A1.33,1.33,0,0,1,138.66,1438Zm0.089-4.68h0v0.97h-0.982a0.974,0.974,0,0,1-.982-0.97h0v-7.92h0a0.617,0.617,0,0,0-.625-0.46h-1.518a0.97,0.97,0,1,1,0-1.94h2.2a2.132,2.132,0,0,1,1.907,2.38,0.042,0.042,0,0,1,0,.01s0,0,0,.01v7.92Zm-3.393-4.28a0.669,0.669,0,0,1-.669.67h-2.053a0.665,0.665,0,1,1,0-1.33h2.053A0.667,0.667,0,0,1,135.356,1429.04Zm-0.446,2.39a0.668,0.668,0,0,1-.67.66h-3.57a0.665,0.665,0,1,1,0-1.33h3.57A0.67,0.67,0,0,1,134.91,1431.43Z" transform="translate(-130 -1423)"/>
  <path class="cls-2" d="M149.8,1428.07c-0.638,2.23-1.428,3.14-3.189,3.14H141.7v3.08h-1.964v-9.35H148.2C149.965,1424.94,150.275,1426.41,149.8,1428.07Zm-2.658-1.19h-5.088c-0.355,0-.357,0-0.357.36v1.67c0,0.35,0,.35.357,0.35H146.6C147.469,1429.26,148.25,1426.88,147.14,1426.88Z" transform="translate(-130 -1423)"/>
</svg>
