<svg id="Premmerce_logo_blue" xmlns="http://www.w3.org/2000/svg" width="20" height="15" viewBox="0 0 20 15">
  <metadata><?xpacket begin="﻿" id="W5M0MpCehiHzreSzNTczkc9d"?>
<x:xmpmeta xmlns:x="adobe:ns:meta/" x:xmptk="Adobe XMP Core 5.6-c138 79.159824, 2016/09/14-01:09:01        ">
   <rdf:RDF xmlns:rdf="http://www.w3.org/1999/02/22-rdf-syntax-ns#">
      <rdf:Description rdf:about=""/>
   </rdf:RDF>
</x:xmpmeta>
                                                                                                    
                                                                                                    
                                                                                                    
                                                                                                    
                                                                                                    
                                                                                                    
                                                                                                    
                                                                                                    
                                                                                                    
                                                                                                    
                                                                                                    
                                                                                                    
                                                                                                    
                                                                                                    
                                                                                                    
                                                                                                    
                                                                                                    
                                                                                                    
                                                                                                    
                                                                                                    
                           
<?xpacket end="w"?></metadata>
<defs>
    <style>
      .cls-1 {
        fill: #7de2ff;
      }

      .cls-1, .cls-2 {
        fill-rule: evenodd;
      }

      .cls-2 {
        fill: #c2f1ff;
      }
    </style>
  </defs>
  <path id="p_copy_13" data-name="p copy 13" class="cls-1" d="M102.248,1135.29h0l-3.572.01v-1.95h3.572A0.97,0.97,0,1,1,102.248,1135.29Zm-2.5,1.06a1.325,1.325,0,1,1-1.339,1.33A1.338,1.338,0,0,1,99.748,1136.35ZM94.66,1139A1.325,1.325,0,1,1,96,1137.68,1.329,1.329,0,0,1,94.66,1139Zm0.089-4.68h0v0.97H93.767a0.973,0.973,0,0,1-.981-0.97h0v-7.92h0a0.617,0.617,0,0,0-.625-0.46H90.642a0.97,0.97,0,1,1,0-1.94h2.2a2.132,2.132,0,0,1,1.906,2.38l0,0.01s0,0,0,.01v7.92Zm-3.392-4.28a0.67,0.67,0,0,1-.67.67H88.634a0.665,0.665,0,1,1,0-1.33h2.053A0.668,0.668,0,0,1,91.356,1130.04Zm-0.446,2.39a0.668,0.668,0,0,1-.669.66H86.67a0.665,0.665,0,1,1,0-1.33h3.571A0.67,0.67,0,0,1,90.91,1132.43Z" transform="translate(-86 -1124)"/>
  <path class="cls-2" d="M105.8,1129.07c-0.638,2.23-1.428,3.14-3.189,3.14H97.695v3.08H95.731v-9.35H104.2C105.965,1125.94,106.275,1127.41,105.8,1129.07Zm-2.658-1.19H98.052c-0.355,0-.357,0-0.357.36v1.67c0,0.35,0,.35.357,0.35h4.553C103.469,1130.26,104.25,1127.88,103.14,1127.88Z" transform="translate(-86 -1124)"/>
</svg>
